<svg width="32" height="32" viewBox="0 0 32 32" fill="none" xmlns="http://www.w3.org/2000/svg">
<path d="M29.6923 6H7.56041C6.49226 6 5.62634 6.67157 5.62634 7.5C5.62634 8.32843 6.49226 9 7.56041 9H29.6923C30.7604 9 31.6263 8.32843 31.6263 7.5C31.6263 6.67157 30.7604 6 29.6923 6Z" fill="#55C5E1"/>
<path d="M30.0659 23H12.9341C11.8659 23 11 23.6716 11 24.5C11 25.3284 11.8659 26 12.9341 26H30.0659C31.1341 26 32 25.3284 32 24.5C32 23.6716 31.1341 23 30.0659 23Z" fill="#3EDAA6"/>
<path d="M30.0659 15H1.93407C0.865913 15 0 15.6716 0 16.5C0 17.3284 0.865913 18 1.93407 18H30.0659C31.1341 18 32 17.3284 32 16.5C32 15.6716 31.1341 15 30.0659 15Z" fill="#A343FF"/>
</svg>
